<?xml version="1.0" standalone="no"?><!DOCTYPE svg PUBLIC "-//W3C//DTD SVG 1.1//EN" "http://www.w3.org/Graphics/SVG/1.1/DTD/svg11.dtd"><svg t="1597736373018" class="icon" viewBox="0 0 1387 1024" version="1.1" xmlns="http://www.w3.org/2000/svg" p-id="965" xmlns:xlink="http://www.w3.org/1999/xlink" width="21.671875" height="16"><defs><style type="text/css"></style></defs><path d="M975.65062429 549.49188403L669.50873817 854.72100383c-37.60597973 37.42342646-98.48750612 37.42342646-136.09348657 0L295.27446989 617.31043591c-37.60597973-37.42342646-37.60597973-98.21367585 0-135.63710304L601.41635675 176.35293608c23.36682293-24.46214252 27.83937827-35.1415103 52.39279704-35.1415103h311.07082572c24.55341878 0 44.45172895 19.80703317 44.45172896 44.26917569v310.0667824c0 24.46214252-13.96532727 34.22874397-33.68108418 53.94450016zM329.22938434 583.35552148L567.37016604 820.76609012c18.80298987 18.71171359 49.28939155 18.71171359 68.00110442 0l33.68108417-33.5898072L363.64068158 481.30822634l-34.41129724 34.32002024c-18.71171359 18.71171359-18.71171359 49.01556129 0 67.7272749zM964.87997951 207.66082782c0-12.23107088-9.94915472-22.18022635-22.18022635-22.18022635H676.08065641c-12.23107088 0-29.66491163 13.87405101-40.61810896 24.82724905L397.68687229 447.3533119l305.77677959 305.59422707L941.60443357 515.53697032c11.95724136-11.95724136 23.27554594-29.84746491 23.27554594-42.07853579V207.66082782zM724.00089811 436.21756061c-37.14959693-36.96704366-37.14959693-97.02707999 1e-8-133.99412295 37.14959693-37.05831994 97.30090953-37.05831994 134.45050645 0 37.14959693 36.96704366 37.14959693 97.02707999 0 133.99412294-37.14959693 36.96704366-97.39218652 36.96704366-134.45050645 1e-8zM824.86159739 335.63069158c-18.52916033-18.52916033-48.65045476-18.52916033-67.27089136 0-18.52916033 18.52916033-18.52916033 48.55917849 0 66.99706183 18.52916033 18.52916033 48.65045476 18.52916033 67.27089136 0 18.52916033-18.43788333 18.52916033-48.46790151 0-66.99706183z m0 0" p-id="966"></path></svg>