<?xml version="1.0" standalone="no"?><!DOCTYPE svg PUBLIC "-//W3C//DTD SVG 1.1//EN" "http://www.w3.org/Graphics/SVG/1.1/DTD/svg11.dtd"><svg t="1597825658821" class="icon" viewBox="0 0 1387 1024" version="1.1" xmlns="http://www.w3.org/2000/svg" p-id="847" width="16" height="16"><path d="M1039.53137697 554.6574325L691.20994209 901.94034213c-42.78724805 42.579543-112.05689585 42.579543-154.84414471 0L265.41450797 631.81987375c-42.78724805-42.579543-42.78724805-111.74533786 0-154.32488169L613.73594368 130.10822949c26.58625187-27.83248215 31.67502594-39.98322949 59.61136019-39.98322949h353.92947281c27.93633426 0 50.57618939 22.53600219 50.5761894 50.36848434v352.78709464c0 27.83248215-15.88943903 38.94470425-38.32158911 61.37685352zM304.04765507 593.18672667L574.99894447 863.30719587c21.39362403 21.2897719 56.08037439 21.2897719 77.37014547 0l38.32158911-38.21773619L343.20006437 477.07958197l-39.1524093 39.04855637c-21.2897719 21.2897719-21.2897719 55.76881641 0 77.05858833zM1027.27677668 165.72965298c0-13.91624065-11.31992715-25.23616865-25.23616864-25.23616864H698.68732463c-13.91624065 0-33.75207724 15.78558692-46.21438175 28.24789225L381.93706358 438.44643487l347.90602478 347.69832058L1000.79437775 516.02428623c13.6046835-13.6046835 26.48239893-33.95978229 26.48239893-47.87602294V165.72965298zM753.20991074 425.77642451c-42.26798585-42.06028079-42.26798585-110.39525546 1e-8-152.45553544 42.26798585-42.16413291 110.70681262-42.16413291 152.97479844 0 42.26798585 42.06028079 42.26798585 110.39525546 0 152.45553543-42.26798585 42.06028079-110.81066555 42.06028079-152.97479844 1e-8zM867.96697303 311.3309202c-21.08206687-21.08206687-55.3534063-21.08206687-76.53932528 0-21.08206687 21.08206687-21.08206687 55.2495542 0 76.22776812 21.08206687 21.08206687 55.3534063 21.08206687 76.53932528 0 21.08206687-20.97821392 21.08206687-55.14570127 0-76.22776812z m0 0" p-id="848"></path></svg>