<?xml version="1.0" standalone="no"?><!DOCTYPE svg PUBLIC "-//W3C//DTD SVG 1.1//EN" "http://www.w3.org/Graphics/SVG/1.1/DTD/svg11.dtd"><svg t="1597736356915" class="icon" viewBox="0 0 1024 1024" version="1.1" xmlns="http://www.w3.org/2000/svg" p-id="825" xmlns:xlink="http://www.w3.org/1999/xlink" width="16" height="16"><defs><style type="text/css"></style></defs><path d="M735.96612073 607.46696861H557.94007974v-51.53178146h178.02604099c25.48650931 0 46.14308105-18.07933766 46.14308105-43.78039016 0-25.6929053-20.65657172-45.42205297-46.14308105-45.42205296H625.01537975L756.15965937 237.75133665c12.75174134-22.25410379 5.18977269-50.71434473-16.89459756-63.55231067-22.08233345-12.85426039-50.30087381-5.22439834-63.05261515 17.02223717l-157.79380314 275.51148088h-0.57709404a46.16752268 46.16752268 0 0 0-6.06288203-0.41211304c-0.0916561 0-0.18127541 0.0061104-0.27293151 0.00678935L353.92919172 191.22126315C341.1937448 168.97530657 312.95823109 161.34408665 290.8752187 174.19902598c-22.06671798 12.83796597-29.6286866 41.29820689-16.89391861 63.55231068l131.15785829 228.98140736h-118.66411195c-28.76915596 0-45.06085999 18.62995326-45.06086 44.32217963 0 25.7010525 15.94816334 44.3296479 43.41105 44.8802635h184.09299665v51.53110252H287.57559871c-25.48650931 0-46.16073332 19.72032153-46.16073334 45.42137404 0 25.69222637 20.67422401 44.32217963 46.16073333 44.32217962h181.3433133v111.80959269c0 25.6929053 19.00676173 46.52124737 44.51092333 46.52124736 25.48583037 0 44.51024439-20.82766311 44.51024441-46.52124736V697.20984333h178.02604099c25.48650931 0 46.14308105-18.62927433 46.14308105-44.32217963 0-25.7010525-20.65657172-45.42069509-46.14308105-45.42069509z" p-id="826"></path></svg>