<?xml version="1.0" standalone="no"?><!DOCTYPE svg PUBLIC "-//W3C//DTD SVG 1.1//EN" "http://www.w3.org/Graphics/SVG/1.1/DTD/svg11.dtd"><svg t="1597736378755" class="icon" viewBox="0 0 1024 1024" version="1.1" xmlns="http://www.w3.org/2000/svg" p-id="1105" xmlns:xlink="http://www.w3.org/1999/xlink" width="16" height="16"><defs><style type="text/css"></style></defs><path d="M262.87642669 604.69714356a28.96785737 28.96785737 0 0 0-28.96785735 28.96785736v173.80714416a28.96785737 28.96785737 0 0 0 57.93571472 0V633.66500092a28.96785737 28.96785737 0 0 0-28.96785737-28.96785736z m166.07996822-185.39428712a28.96785737 28.96785737 0 0 0-28.96785736 28.96785737v359.20143126a28.96785737 28.96785737 0 0 0 57.93571473 1e-8V448.2707138a28.96785737 28.96785737 0 0 0-28.96785737-28.96785736zM761.12357331 419.30285644a28.96785737 28.96785737 0 0 0-28.96785737 28.96785737v359.20143126a28.96785737 28.96785737 0 0 0 57.93571472 1e-8V448.2707138a28.96785737 28.96785737 0 0 0-28.96785736-28.96785736zM595.04360509 558.34857177a28.96785737 28.96785737 0 0 0-28.96785737 28.96785737v220.15571593a28.96785737 28.96785737 0 0 0 28.96785737 28.96785737 28.96785737 28.96785737 0 0 0 28.96785736-28.96785736V587.31642914a28.96785737 28.96785737 0 0 0-28.96785736-28.96785736zM807.7111299 187.55999756H703.18785859a28.96785737 28.96785737 0 0 0-1e-8 57.93571472h34.39933061L598.28076315 383.17269635l-141.1820948-141.21830463a28.59851718 28.59851718 0 0 0-39.47594763-0.91972947q-0.59384108 0.53590537-1.17319824 1.10802054L196.04757976 462.58083535a28.85922789 28.85922789 0 0 0 40.81571103 40.81571102l200.00132918-200.00857116L575.97551299 442.47714234c0.49969553 0.59384108 1.013875 1.16595625 1.56426429 1.7235875a28.67093683 28.67093683 0 0 0 15.07776975 8.05306435l0.39106607 0.06517768 0.84006787 0.1448393a28.54782344 28.54782344 0 0 0 24.02883769-7.60406257l0.44175981-0.42003393L778.74327254 285.97829293V320.81214141a28.96785737 28.96785737 0 0 0 57.93571472 1e-8V216.52785492a28.96785737 28.96785737 0 0 0-28.96785736-28.96785736z" p-id="1106"></path></svg>